<svg xmlns="http://www.w3.org/2000/svg" viewBox="0 0 1920 953" preserveAspectRatio="xMidYMid" width="1920" height="953" xmlns:xlink="http://www.w3.org/1999/xlink" style="shape-rendering:auto;display:block;background-position-x:0%;background-position-y:0%;background-size:auto;background-origin:padding-box;background-clip:border-box;background:scroll rgb(163, 186, 223) none  repeat;width:1920px;height:953px;;animation:none"><g style="transform:matrix(1, 0, 0, -1, 0, 953);;animation:none"><defs><linearGradient y2="1" y1="0" x2="0" x1="0" id="lg-bk-n2c88aimwtj"><stop offset="0" stop-opacity="0" stop-color="#dffff9"></stop>

  
<stop offset="0.8250000000000001" stop-opacity="1" stop-color="#dffff9"></stop></linearGradient>


<linearGradient y2="1" y1="0" x2="0" x1="0" id="lg-jg6mq6wfbyj"><stop offset="0" stop-color="rgba(95, 202, 255, 0.394)"></stop>

  
<stop offset="0.37" stop-color="#0075fc"></stop>

  
<stop offset="1" stop-color="#003067"></stop></linearGradient></defs>


<rect fill="url(#lg-bk-n2c88aimwtj)" height="953" width="1920" y="0" x="0" style="fill:url('#lg-bk-n2c88aimwtj');;animation:none"></rect>
<g transform="matrix(1,0,0,1,0,0)" style="transform:matrix(1, 0, 0, 1, 0, 0);;animation:none"><path opacity="0.4" fill="url(#lg-jg6mq6wfbyj)" d="M0 628.98
C960 628.98 960 722.9458 1920 722.9458
C2880 722.9458 2880 628.98 3840 628.98
C4800 628.98 4800 722.9458 5760 722.9458
C6720 722.9458 6720 628.98 7680 628.98
L7680 953 L0 953 Z" transform="matrix(1,0,0,1,-3840,0)" style="fill:url('#lg-jg6mq6wfbyj');transform:matrix(1, 0, 0, 1, -3840, 0);opacity:0.4;;animation:none"></path></g>
<g transform="matrix(1,0,0,1,0,7.311387062072754)" style="transform:matrix(1, 0, 0, 1, 0, 7.31139);;animation:none"><path opacity="0.4" fill="url(#lg-jg6mq6wfbyj)" d="M0 628.98
C960 628.98 960 722.9458 1920 722.9458
C2880 722.9458 2880 628.98 3840 628.98
C4800 628.98 4800 722.9458 5760 722.9458
C6720 722.9458 6720 628.98 7680 628.98
L7680 953 L0 953 Z" transform="matrix(1,0,0,1,-3660.80029296875,0)" style="fill:url('#lg-jg6mq6wfbyj');transform:matrix(1, 0, 0, 1, -3660.8, 0);opacity:0.4;;animation:none"></path></g>
<g transform="matrix(1,0,0,1,0,7.3113884925842285)" style="transform:matrix(1, 0, 0, 1, 0, 7.31139);;animation:none"><path opacity="0.4" fill="url(#lg-jg6mq6wfbyj)" d="M0 628.98
C960 628.98 960 722.9458 1920 722.9458
C2880 722.9458 2880 628.98 3840 628.98
C4800 628.98 4800 722.9458 5760 722.9458
C6720 722.9458 6720 628.98 7680 628.98
L7680 953 L0 953 Z" transform="matrix(1,0,0,1,-3481.60009765625,0)" style="fill:url('#lg-jg6mq6wfbyj');transform:matrix(1, 0, 0, 1, -3481.6, 0);opacity:0.4;;animation:none"></path></g>
<g></g></g><!-- [ldio] generated by https://loading.io --></svg>